<?xml version="1.0" encoding="UTF-8"?>
<svg width="752pt" height="752pt" version="1.1" viewBox="0 0 752 752" xmlns="http://www.w3.org/2000/svg">
 <g>
  <path d="m428.57 255.71c-3.5859-1.2383-7.5078-1.043-10.953 0.54687-3.4414 1.5898-6.1367 4.4492-7.5195 7.9766-1.2109 3.6445-0.94922 7.6211 0.73047 11.074 1.6836 3.4531 4.6523 6.1094 8.2695 7.3984 39.539 13.695 70.211 45.375 82.629 85.332 12.418 39.961 5.0977 83.445-19.715 117.14-24.812 33.691-64.164 53.586-106.01 53.586-41.844 0-81.195-19.895-106.01-53.586-24.816-33.695-32.133-77.18-19.715-117.14 12.414-39.957 43.09-71.637 82.629-85.332 3.6172-1.2891 6.5859-3.9453 8.2656-7.3984 1.6836-3.4531 1.9453-7.4297 0.73047-11.074-1.3789-3.5273-4.0742-6.3867-7.5195-7.9766-3.4414-1.5898-7.3672-1.7852-10.949-0.54687-48.035 16.703-85.273 55.234-100.33 103.81-15.055 48.574-6.1289 101.41 24.039 142.35 30.172 40.938 78.004 65.105 128.86 65.105 50.855 0 98.684-24.168 128.86-65.105s39.098-93.777 24.043-142.35c-15.055-48.574-52.297-87.105-100.33-103.81z"/>
  <path d="m390.21 363.21v-163.39c0-7.8438-6.3594-14.207-14.207-14.207-7.8438 0-14.207 6.3633-14.207 14.207v163.39c0 7.8477 6.3633 14.207 14.207 14.207 7.8477 0 14.207-6.3594 14.207-14.207z"/>
 </g>
</svg>
