<?xml version="1.0" encoding="UTF-8"?>
<svg width="752pt" height="752pt" version="1.1" viewBox="0 0 752 752" xmlns="http://www.w3.org/2000/svg">
 <g>
  <path d="m286.9 239.86 11.938 18.16c2.2539-1.4766 4.6016-2.8398 6.9883-4.0547l-9.8164-19.387c-3.1211 1.582-6.1797 3.3594-9.1094 5.2812z"/>
  <path d="m305.66 230.36 7.5664 20.379c2.5156-0.93359 5.125-1.7461 7.7695-2.4102l-5.332-21.078c-3.3984 0.85938-6.7578 1.9023-10.004 3.1094z"/>
  <path d="m292.3 262.85-13.844-16.762c-2.6328 2.1797-5.2148 4.5352-7.6719 7.0234l15.457 15.277c1.9453-1.957 3.9844-3.8242 6.0586-5.5391z"/>
  <path d="m272.56 309.99-40.141-16.684c-1.3086 3.1406-2.5664 6.4023-3.75 9.6992l40.926 14.668c0.9375-2.625 1.9336-5.2109 2.9648-7.6836z"/>
  <path d="m279.55 295.56-37.871-21.348c-1.7109 3.0352-3.3711 6.2227-4.9453 9.4727l39.145 18.918c1.168-2.4336 2.4023-4.7969 3.6719-7.043z"/>
  <path d="m266.95 325.59-41.531-12.836c-1 3.25-1.9375 6.5117-2.8086 9.7852l42.012 11.172c0.73047-2.7148 1.5-5.4258 2.3281-8.1211z"/>
  <path d="m284.56 287.51-17.867-12.379 8.9453 6.1719c1.625-2.3477 3.3203-4.6133 5.0547-6.7266l-16.809-13.781c-2.1133 2.5703-4.168 5.3125-6.125 8.1484l-8.9375-6.1914c-0.49609 0.72266-0.98828 1.457-1.4766 2.1992l36.254 23.988c0.3125-0.48047 0.63281-0.95703 0.96094-1.4297z"/>
  <path d="m228.8 344.23c-0.25391 1.3242-0.50391 2.6484-0.73828 3.9648l21.391 3.8633c0.22266-1.2305 0.45312-2.4688 0.69141-3.7031l10.668 2.0664c0.53906-2.8047 1.1289-5.6133 1.7656-8.4141l-42.387-9.6562c-0.75 3.2734-1.4297 6.5508-2.0664 9.8125l21.34 4.1289z"/>
  <path d="m247.99 360.94-21.496-3.25c-0.48438 3.1953-0.91016 6.3789-1.3008 9.5195l21.57 2.6602c0.36719-2.9453 0.76953-5.9219 1.2266-8.9297z"/>
  <path d="m245.77 378.87-21.629-2.1328c-0.32031 3.2422-0.59375 6.4258-0.82422 9.5391l21.676 1.625c0.21875-2.9492 0.48047-5.9609 0.77734-9.0312z"/>
  <path d="m244.42 396.96-21.703-1.1289c-0.17188 3.293-0.29297 6.4844-0.39453 9.5469l21.727 0.64844c0.085938-2.9062 0.21094-5.9375 0.37109-9.0664z"/>
  <path d="m222.14 414.91c-0.007813 1.332-0.015625 2.625-0.015625 3.875 0 1.9922 0.015625 3.8945 0.039062 5.6875l21.734-0.28906c-0.023438-1.7031-0.039063-3.5-0.039063-5.4023 0-1.1875 0.003906-2.4102 0.019531-3.6602z"/>
  <path d="m529.66 199.25c0 18.758-15.207 33.961-33.961 33.961-18.758 0-33.961-15.203-33.961-33.961 0-18.754 15.203-33.961 33.961-33.961 18.754 0 33.961 15.207 33.961 33.961"/>
  <path d="m576.48 417.87-18.402-74.523c-0.11719-0.49219-0.26953-0.97656-0.44531-1.4492l-32.84-89.914c-2.5117-6.8867-9.875-10.539-16.82-8.6094-3.2695-1.375-6.9062-2.0352-10.699-1.7578-2.0586 0.15234-4.0273 0.59375-5.8906 1.2266-5.6641 0.042969-10.969 3.5078-13.023 9.1406l-31.934 87.453-30.062 34.246c-5.4844-6.3047-13.535-10.309-22.547-10.309h-2.5234v-2.9453c0-2.5234-0.90625-4.8164-2.3633-6.6523 0.71094-2.5234 1.1211-5.2266 1.1211-8.0547v-30.082h14.746l0.003906-104.02h-68.312v18.887l-0.33594-6.3086c-3.4727 0.18359-6.9219 0.52734-10.266 1.0195l3.1641 21.504c2.4141-0.35156 4.9141-0.59766 7.4414-0.75391v69.672h14.754v30.082c0 2.0508 0.22656 4.0352 0.60937 5.9375-2.7617 1.9453-4.5664 5.1445-4.5664 8.7695v6.9492c0 0.96484 0.14062 1.8984 0.38281 2.7852-6.668 5.4805-10.918 13.789-10.918 23.094v78.305c0 16.496 13.371 29.879 29.875 29.879h27.191c16.496 0 29.879-13.379 29.879-29.879v-63.871l45.465-51.781c1.1367-1.2969 2.0312-2.8008 2.625-4.4219l8.4062-23.035 1.9492 27.125-28.363 217.8c-1.0508 8.0898 4.6445 15.496 12.738 16.551 0.64844 0.085937 1.2852 0.125 1.9219 0.125 7.3086 0 13.656-5.4258 14.625-12.863l21.516-165.14 21.504 165.14c0.97266 7.4336 7.3203 12.863 14.629 12.863 0.64062 0 1.2852-0.042969 1.9258-0.125 8.0898-1.0547 13.789-8.4648 12.738-16.551l-24.84-190.67c0.074219-1.0703 0.097656-2.1445 0.019532-3.25l-2.7148-37.668 3.2773 8.9805 18.223 73.789c1.5742 6.375 7.2734 10.629 13.555 10.629 1.1094 0 2.2383-0.12891 3.3594-0.40625 7.4961-1.8477 12.074-9.418 10.223-16.91zm-219.03-72.156v-30.082h3.8828v12.422c0 5.1484 4.168 9.3164 9.3164 9.3164 5.1484 0 9.3203-4.168 9.3203-9.3164v-12.422h3.8789v30.082c0 1.5195-0.15234 2.9883-0.41016 4.3984-0.92188-0.26172-1.8789-0.44531-2.8828-0.44531h-22.5c-0.089843 0-0.17578 0.023437-0.26172 0.027343-0.22266-1.2812-0.34375-2.6055-0.34375-3.9805zm43.32 124.11c-5.0859 0-9.2188-4.1328-9.2188-9.2266l-0.003906-68.504c0-5.0977 4.1328-9.2266 9.2188-9.2266 2.1797 0 4.1484 0.78906 5.7266 2.0508l-4.6875 5.3438c-5.0898 5.8008-4.5195 14.629 1.2852 19.727 2.0312 1.7812 4.4336 2.8555 6.9062 3.2617v47.344c0 5.0938-4.125 9.2305-9.2266 9.2305z"/>
  <path d="m281.16 455.42h-4.8359v-14.348c0-4.957-4.0195-8.9805-8.9844-8.9805l-55.141 0.003906c-4.957 0-8.9844 4.0273-8.9844 8.9805v14.34h-4.8398c-11.355 0-20.559 9.2031-20.559 20.562v91.477c0 11.352 9.2031 20.562 20.559 20.562h82.785c11.355 0 20.562-9.207 20.562-20.562v-91.48c0-11.355-9.2031-20.555-20.562-20.555z"/>
 </g>
</svg>
