<?xml version="1.0" encoding="UTF-8"?>
<svg width="752pt" height="752pt" version="1.1" viewBox="0 0 752 752" xmlns="http://www.w3.org/2000/svg">
 <g>
  <path d="m155 539.86h240.44c2.8125 15.605 11.004 29.734 23.145 39.934 12.145 10.199 27.473 15.824 43.332 15.902 15.883-0.027343 31.25-5.6328 43.422-15.836 12.172-10.207 20.367-24.363 23.164-40h68.508c6.5391 0 11.84-5.3008 11.84-11.84 0-6.5391-5.3008-11.84-11.84-11.84h-68.492c-3.6602-21.074-17.078-39.168-36.184-48.785-19.105-9.6172-41.637-9.6172-60.742 0-19.105 9.6172-32.527 27.711-36.184 48.785h-240.41c-6.5391 0-11.84 5.3008-11.84 11.84 0 6.5391 5.3008 11.84 11.84 11.84zm306.96-55.992c15.746 0 30.297 8.4023 38.168 22.039 7.875 13.637 7.875 30.438 0 44.074-7.8711 13.637-22.422 22.035-38.168 22.035v11.84-11.84c-15.746 0-30.297-8.3984-38.172-22.035-7.8711-13.637-7.8711-30.438 0-44.074 7.875-13.637 22.426-22.039 38.172-22.039z"/>
  <path d="m155 387.84h79.152c6.5391 0 11.84-5.3008 11.84-11.84 0-11.688 4.6445-22.898 12.91-31.164 8.2656-8.2656 19.48-12.91 31.168-12.91 11.691 0.003907 22.902 4.6484 31.168 12.914 8.2617 8.2695 12.906 19.48 12.902 31.172-0.003907 11.691-4.6484 22.902-12.918 31.164-8.2695 8.2656-19.48 12.906-31.172 12.898-6.5391 0-11.84 5.3008-11.84 11.84 0 6.5391 5.3008 11.84 11.84 11.84 15.891-0.03125 31.262-5.6523 43.43-15.871 12.164-10.223 20.352-24.395 23.125-40.043h240.4c6.5391 0 11.84-5.3008 11.84-11.84s-5.3008-11.84-11.84-11.84h-240.4c-3.6953-21.039-17.121-39.09-36.211-48.684-19.086-9.5898-41.586-9.5898-60.672 0-19.09 9.5938-32.516 27.645-36.211 48.684h-68.512c-6.5391 0-11.84 5.3008-11.84 11.84s5.3008 11.84 11.84 11.84z"/>
  <path d="m155 235.98h240.42c3.707 21.027 17.137 39.062 36.215 48.645 19.082 9.582 41.566 9.582 60.648 0 19.078-9.582 32.508-27.617 36.215-48.645h68.508c6.5391 0 11.84-5.3008 11.84-11.84s-5.3008-11.84-11.84-11.84h-68.508c-3.6445-21.082-17.062-39.191-36.172-48.812-19.105-9.625-41.645-9.625-60.754 0-19.105 9.6211-32.523 27.73-36.168 48.812h-240.41c-6.5391 0-11.84 5.3008-11.84 11.84s5.3008 11.84 11.84 11.84zm306.98-55.996c11.688 0.007813 22.895 4.6523 31.16 12.922 8.2617 8.2656 12.902 19.477 12.898 31.164-0.003906 11.691-4.6484 22.898-12.914 31.16-8.2656 8.2656-19.477 12.906-31.168 12.906-11.688-0.003907-22.895-4.6484-31.16-12.914-8.2656-8.2617-12.906-19.473-12.906-31.16 0.03125-11.684 4.6875-22.879 12.949-31.137 8.2617-8.2578 19.457-12.91 31.141-12.941z"/>
 </g>
</svg>
